<svg width="16" height="16" viewBox="0 0 16 16" fill="none" xmlns="http://www.w3.org/2000/svg">
  <g clip-path="url(#clip0_86_519)">
    <path
      d="M1.99403 10.8911C2.09203 11.1383 2.11384 11.4092 2.05668 11.6689L1.3469 13.8615C1.32403 13.9727 1.32995 14.0879 1.36408 14.1962C1.39822 14.3044 1.45944 14.4022 1.54195 14.4801C1.62446 14.5581 1.72552 14.6137 1.83555 14.6417C1.94557 14.6696 2.06092 14.669 2.17064 14.6399L4.44525 13.9748C4.69032 13.9262 4.94412 13.9474 5.17769 14.0361C6.60083 14.7007 8.21297 14.8413 9.72968 14.4331C11.2464 14.0249 12.5702 13.0942 13.4675 11.8051C14.3649 10.5159 14.7781 8.95132 14.6342 7.38725C14.4904 5.82317 13.7988 4.36016 12.6814 3.25632C11.564 2.15249 10.0926 1.47878 8.52688 1.35406C6.96116 1.22934 5.40171 1.66162 4.12365 2.57464C2.8456 3.48765 1.93107 4.82272 1.54144 6.34431C1.1518 7.86589 1.31209 9.47619 1.99403 10.8911Z"
      stroke="#F0B100" stroke-width="1.33291" stroke-linecap="round" stroke-linejoin="round" />
  </g>
  <defs>
    <clipPath id="clip0_86_519">
      <rect width="15.9949" height="15.9949" fill="white" />
    </clipPath>
  </defs>
</svg>