<svg width="20" height="20" viewBox="0 0 20 20" fill="none" xmlns="http://www.w3.org/2000/svg">
<path d="M13.5714 9.28578C13.5714 10.233 13.1952 11.1414 12.5254 11.8112C11.8556 12.4809 10.9472 12.8572 10 12.8572C9.05282 12.8572 8.1444 12.4809 7.47463 11.8112C6.80486 11.1414 6.42859 10.233 6.42859 9.28578V4.28578C6.42859 3.33858 6.80486 2.43017 7.47463 1.7604C8.1444 1.09063 9.05282 0.714355 10 0.714355C10.9472 0.714355 11.8556 1.09063 12.5254 1.7604C13.1952 2.43017 13.5714 3.33858 13.5714 4.28578V9.28578Z" stroke="white" stroke-linecap="round" stroke-linejoin="round"/>
<path d="M17.1429 10C17.1448 10.8447 16.9798 11.6815 16.6575 12.4623C16.335 13.2431 15.8616 13.9526 15.2642 14.5499C14.6669 15.1471 13.9575 15.6207 13.1767 15.943C12.3959 16.2654 11.5591 16.4304 10.7143 16.4286H9.28576C8.44102 16.4304 7.60424 16.2654 6.82344 15.943C6.04264 15.6207 5.33321 15.1471 4.73588 14.5499C4.13855 13.9526 3.66511 13.2431 3.34271 12.4623C3.02031 11.6815 2.85531 10.8447 2.85719 10" stroke="white" stroke-linecap="round" stroke-linejoin="round"/>
<path d="M10 16.4287V19.2859" stroke="white" stroke-linecap="round" stroke-linejoin="round"/>
</svg>
