<svg width="24" height="24" viewBox="0 0 24 24" fill="none" xmlns="http://www.w3.org/2000/svg">
  <g clip-path="url(#clip0_67_1187)">
    <path fill-rule="evenodd" clip-rule="evenodd"
      d="M15.9474 11.4737C15.2216 11.4737 14.6316 10.8837 14.6316 10.1579C14.6316 9.43211 15.2216 8.84211 15.9474 8.84211C16.6732 8.84211 17.2632 9.43211 17.2632 10.1579C17.2632 10.8837 16.6732 11.4737 15.9474 11.4737ZM17.0379 14.9205C15.9095 16.0747 14.0726 16.7368 12 16.7368C9.92737 16.7368 8.09052 16.0747 6.9621 14.9205C6.65737 14.6084 6.66263 14.109 6.97421 13.8042C7.28684 13.5 7.78579 13.5047 8.09053 13.8163C8.91211 14.6563 10.3732 15.1579 12 15.1579C13.6268 15.1579 15.0879 14.6563 15.9095 13.8163C16.2142 13.5047 16.7137 13.5 17.0258 13.8042C17.3374 14.109 17.3426 14.6084 17.0379 14.9205ZM8.05263 8.84211C8.77842 8.84211 9.36842 9.43211 9.36842 10.1579C9.36842 10.8837 8.77842 11.4737 8.05263 11.4737C7.32684 11.4737 6.73684 10.8837 6.73684 10.1579C6.73684 9.43211 7.32684 8.84211 8.05263 8.84211ZM12 2C6.48579 2 2 6.48579 2 12C2 17.5142 6.48579 22 12 22C17.5142 22 22 17.5142 22 12C22 6.48579 17.5142 2 12 2Z"
      fill="#197DE1" />
  </g>
  <defs>
    <clipPath id="clip0_67_1187">
      <rect width="20" height="20" fill="white" transform="translate(2 2)" />
    </clipPath>
  </defs>
</svg>